<svg width="16" height="12" viewBox="0 0 16 12" fill="none" xmlns="http://www.w3.org/2000/svg">
<g clip-path="url(#clip0_43_4364)">
<path d="M7.9998 2.7998C5.1998 2.7998 2.6398 3.9998 0.799805 5.9998L2.3998 7.5998C3.8398 6.1598 5.8398 5.1998 7.9998 5.1998C10.1598 5.1998 12.1598 6.1598 13.5998 7.5998L15.1998 5.9998C13.3598 3.9998 10.7998 2.7998 7.9998 2.7998Z" fill="white"/>
<path d="M7.99994 6C6.23994 6 4.63994 6.72 3.43994 7.92L5.03994 9.52C5.91994 8.64 6.87994 8.24 7.99994 8.24C9.11994 8.24 10.0799 8.64 10.9599 9.52L12.5599 7.92C11.3599 6.72 9.75994 6 7.99994 6Z" fill="white"/>
<path d="M7.9998 12.0001C8.66255 12.0001 9.1998 11.4628 9.1998 10.8001C9.1998 10.1374 8.66255 9.6001 7.9998 9.6001C7.33706 9.6001 6.7998 10.1374 6.7998 10.8001C6.7998 11.4628 7.33706 12.0001 7.9998 12.0001Z" fill="white"/>
</g>
<defs>
<clipPath id="clip0_43_4364">
<rect width="16" height="12" fill="white"/>
</clipPath>
</defs>
</svg>
